<svg xmlns="http://www.w3.org/2000/svg" version="1.1" xmlns:xlink="http://www.w3.org/1999/xlink" xmlns:svgjs="http://svgjs.com/svgjs" width="30" height="30" x="0" y="0" viewBox="0 0 37.166 37.166" style="enable-background:new 0 0 512 512" xml:space="preserve" class="">
    <g>
        <path d="m35.829 32.045-6.833-6.833a2.982 2.982 0 0 0-1.836-.853A14.904 14.904 0 0 0 30.458 15c0-8.271-6.729-15-15-15s-15 6.729-15 15 6.729 15 15 15c3.121 0 6.021-.96 8.424-2.598.018.744.305 1.482.872 2.052l6.833 6.833c.585.586 1.354.879 2.121.879s1.536-.293 2.121-.879a2.998 2.998 0 0 0 0-4.242zM15.458 25c-5.514 0-10-4.484-10-10 0-5.514 4.486-10 10-10s10 4.486 10 10c0 5.516-4.486 10-10 10zm6.876-10a2 2 0 0 1-2 2h-9.5a2 2 0 0 1 0-4h9.5a2 2 0 0 1 2 2z" fill="var(--panel-header-icon)" data-original="#000000" class=""></path>
    </g>
</svg>