<svg xmlns="http://www.w3.org/2000/svg" version="1.1" xmlns:xlink="http://www.w3.org/1999/xlink" xmlns:svgjs="http://svgjs.com/svgjs" width="30" height="30" x="0" y="0" viewBox="0 0 512 512" style="enable-background:new 0 0 512 512" xml:space="preserve" class="">
    <g>
        <path d="M464.865 369.533H175.666c-25.988 0-47.133 21.144-47.133 47.133s21.145 47.134 47.133 47.134h289.199c25.99 0 47.135-21.145 47.135-47.134s-21.145-47.133-47.135-47.133zM464.865 208.866H175.666c-25.988 0-47.133 21.145-47.133 47.134s21.145 47.133 47.133 47.133h289.199c25.99 0 47.135-21.144 47.135-47.133s-21.145-47.134-47.135-47.134zM175.666 142.467h289.199c25.99 0 47.135-21.145 47.135-47.134S490.855 48.2 464.865 48.2H175.666c-25.988 0-47.133 21.144-47.133 47.133s21.145 47.134 47.133 47.134zM47.134 48.2C21.145 48.2 0 69.344 0 95.333s21.145 47.134 47.134 47.134 47.132-21.145 47.132-47.134S73.123 48.2 47.134 48.2zM47.134 208.866C21.145 208.866 0 230.011 0 256s21.145 47.133 47.134 47.133S94.266 281.989 94.266 256s-21.143-47.134-47.132-47.134zM47.134 369.533C21.145 369.533 0 390.677 0 416.666S21.145 463.8 47.134 463.8s47.132-21.145 47.132-47.134-21.143-47.133-47.132-47.133z" fill="var(--panel-header-icon)"  data-original="#000000" class=""></path>
    </g>
</svg>