<svg xmlns="http://www.w3.org/2000/svg" version="1.1" xmlns:xlink="http://www.w3.org/1999/xlink" xmlns:svgjs="http://svgjs.com/svgjs" width="35" height="35" x="0" y="0" viewBox="0 0 512 512" style="enable-background:new 0 0 512 512" xml:space="preserve" class=""><g><path d="M425.432 300.212v86.514c0 40.081-32.491 72.592-72.592 72.592H151.63c-40.091 0-72.592-32.501-72.592-72.592V80.092c0-40.081 32.491-72.592 72.592-72.592h198.499l75.303 75.303v74.038" style="stroke-width:15;stroke-linecap:round;stroke-linejoin:round;stroke-miterlimit:10;" fill="none" stroke="#aebac1" stroke-width="15" stroke-linecap="round" stroke-linejoin="round" stroke-miterlimit="10" data-original="#000000" class=""></path><path d="M33.856 199.774v232.134c0 40.091 32.501 72.592 72.592 72.592h128.216M33.856 164.632v-39.358c0-31.858 20.523-58.927 49.077-68.696M269.806 504.5h37.852c31.858 0 58.927-20.523 68.696-49.077M425.432 82.803h-39.258c-19.91 0-36.045-16.135-36.045-36.045V7.5M176.344 112.924l-37.497 38.222M138.847 112.924l37.497 38.222M213.841 151.146h149.988M176.344 197.013l-37.497 38.222M138.847 197.013l37.497 38.222M340.801 235.235h-126.96M176.344 281.101l-37.497 38.222M138.847 281.101l37.497 38.222M258.307 319.323h-44.466M452.621 230.483c5.894-5.693 15.292-5.633 21.115.181 5.847 5.847 5.907 15.399 0 21.306l-63.897 63.897c-5.884 5.874-15.422 5.874-21.306 0-5.813-5.823-5.874-15.221-.181-21.115" style="stroke-width:15;stroke-linecap:round;stroke-linejoin:round;stroke-miterlimit:10;" fill="none" stroke="#aebac1" stroke-width="15" stroke-linecap="round" stroke-linejoin="round" stroke-miterlimit="10" data-original="#000000" class=""></path><path d="M463.083 220.021c14.857-14.857 14.53-38.724 0-53.254-14.761-14.761-38.609-14.635-53.244 0L259.685 316.921a89.408 89.408 0 0 0-21.587 34.921l-6.838 20.513c-4.583 13.758 5.826 26.938 18.989 27.32 6.107.177 8.798-1.959 27.759-7.922a89.418 89.418 0 0 0 34.921-21.577c2.355-2.356 146.863-146.867 150.154-150.155zM377.891 198.716l53.244 53.254M351.263 225.343l53.245 53.244M271.392 305.214l53.254 53.254" style="stroke-width:15;stroke-linecap:round;stroke-linejoin:round;stroke-miterlimit:10;" fill="none" stroke="#aebac1" stroke-width="15" stroke-linecap="round" stroke-linejoin="round" stroke-miterlimit="10" data-original="#000000" class=""></path></g></svg>