<svg xmlns="http://www.w3.org/2000/svg" version="1.1" xmlns:xlink="http://www.w3.org/1999/xlink" xmlns:svgjs="http://svgjs.com/svgjs" width="30" height="30" x="0" y="0" viewBox="0 0 512 512" style="enable-background:new 0 0 512 512" xml:space="preserve" class="">
    <g>
        <path d="m358.3 333.98-11.71-3.8-3.12-1.02a83.46 83.46 0 0 0-3.49-10.06 90.036 90.036 0 0 0-4.65-9.58l1.5-2.95 5.41-10.66c1.73-3.06 1.28-7-1.3-9.58l-8.7-8.7-8.7-8.7a8.015 8.015 0 0 0-9.27-1.47l-10.97 5.58-2.92 1.5a96.013 96.013 0 0 0-9.58-4.65c-3.26-1.33-6.63-2.52-10.09-3.49l-1.02-3.12-3.63-11.23a8.01 8.01 0 0 0-7.77-6.01h-24.58c-3.37 0-6.49 2.15-7.6 5.53l-3.8 11.71-1.02 3.12c-3.46.96-6.83 2.15-10.06 3.49a90.036 90.036 0 0 0-9.58 4.65l-2.95-1.5-10.66-5.41c-3.06-1.73-7-1.28-9.58 1.3l-8.7 8.7-8.7 8.7a7.987 7.987 0 0 0-1.45 9.27l5.56 10.97 1.5 2.95a90.036 90.036 0 0 0-4.65 9.58c-1.33 3.23-2.52 6.6-3.49 10.06l-3.12 1.02-11.71 3.8c-3.17 1.05-5.5 4.05-5.5 7.6v24.07c-.23 3.54 1.96 6.97 5.5 8.11l11.71 3.8 3.12 1.02c.96 3.46 2.15 6.83 3.49 10.06 1.36 3.29 2.92 6.49 4.65 9.61l-1.5 2.92-5.41 10.66c-1.73 3.06-1.28 7 1.3 9.58l8.7 8.7 8.7 8.7a8.023 8.023 0 0 0 9.27 1.47l10.97-5.58 2.95-1.5c3.09 1.73 6.29 3.29 9.58 4.65 3.23 1.36 6.6 2.52 10.06 3.49l1.02 3.12 3.63 11.23a8.01 8.01 0 0 0 7.77 6.01h24.58c3.37 0 6.52-2.15 7.6-5.53l3.8-11.71 1.02-3.12c3.46-.96 6.83-2.13 10.09-3.49s6.46-2.92 9.58-4.65l2.92 1.5 10.66 5.41c3.06 1.73 7 1.28 9.58-1.3l8.7-8.7 8.7-8.7a7.968 7.968 0 0 0 1.47-9.27l-5.58-10.97-1.5-2.92c1.73-3.12 3.29-6.32 4.65-9.61 1.36-3.23 2.52-6.6 3.49-10.06l3.12-1.02 11.71-3.8a7.99 7.99 0 0 0 5.5-7.6v-24.04a7.999 7.999 0 0 0-5.5-8.14zm-63.19 58.99c-10.01 10.01-23.84 16.21-39.09 16.21-15.28 0-29.11-6.21-39.12-16.21-10.01-10.01-16.19-23.84-16.19-39.09 0-15.28 6.18-29.11 16.19-39.12s23.84-16.19 39.12-16.19c15.25 0 29.08 6.18 39.09 16.19s16.21 23.84 16.21 39.12c.01 15.25-6.2 29.08-16.21 39.09zm-11.31-66.9c7.11 7.11 11.51 16.95 11.51 27.81s-4.39 20.66-11.51 27.78c-7.11 7.12-16.92 11.51-27.78 11.51s-20.69-4.39-27.81-11.51c-7.11-7.11-11.51-16.92-11.51-27.78s4.39-20.69 11.51-27.81 16.95-11.51 27.81-11.51 20.67 4.4 27.78 11.51zm225.55-37.73a7.888 7.888 0 0 1-5.33 2.07v.03h-35.15v95.3a7.98 7.98 0 0 1-7.99 7.99H411.9a7.98 7.98 0 0 1-7.99-7.99v-95.3h-35.15a7.98 7.98 0 0 1-7.99-7.99c0-2.35.99-4.45 2.61-5.9l67.1-74.13c2.98-3.26 7.99-3.52 11.25-.57.23.2.43.4.62.6l67.58 74.64c2.94 3.26 2.68 8.3-.58 11.25zm-360.73 0a7.961 7.961 0 0 1-5.36 2.07v.03h-35.12v95.3c0 4.42-3.6 7.99-8.02 7.99H51.13c-4.39 0-7.99-3.57-7.99-7.99v-95.3H8.02a7.98 7.98 0 0 1-7.99-7.99c0-2.35.99-4.45 2.58-5.9l67.12-74.13c2.95-3.26 7.99-3.52 11.25-.57.2.2.43.4.6.6l67.58 74.64a7.948 7.948 0 0 1-.54 11.25zm31.77-186.89c0-2.35.99-4.45 2.58-5.92l67.12-74.1c2.95-3.29 7.99-3.52 11.25-.57.23.2.43.4.6.6l67.61 74.64c2.95 3.26 2.69 8.31-.57 11.25a7.906 7.906 0 0 1-5.36 2.07v.03H288.5v95.27c0 4.42-3.6 8.02-7.99 8.02h-48.98c-4.42 0-8.02-3.6-8.02-8.02v-95.27h-35.12c-4.43 0-8-3.6-8-8zM59.16 414.23v56.98c0 4.42-3.6 7.99-8.02 7.99-4.39 0-7.99-3.57-7.99-7.99v-56.98c0-4.42 3.6-7.99 7.99-7.99 4.42-.01 8.02 3.57 8.02 7.99zm24.49 14v56.98c0 4.42-3.6 7.99-8.02 7.99-4.39 0-7.99-3.57-7.99-7.99v-56.98c0-4.42 3.6-7.99 7.99-7.99 4.42 0 8.02 3.57 8.02 7.99zm24.49-22.51v56.98c0 4.42-3.6 8.02-8.02 8.02-4.39 0-7.99-3.6-7.99-8.02v-56.98c0-4.42 3.6-7.99 7.99-7.99 4.42 0 8.02 3.57 8.02 7.99zm360.74 8.51v56.98c0 4.42-3.57 7.99-7.99 7.99s-7.99-3.57-7.99-7.99v-56.98c0-4.42 3.57-7.99 7.99-7.99s7.99 3.57 7.99 7.99zm-24.5 14v56.98c0 4.42-3.57 7.99-7.99 7.99s-7.99-3.57-7.99-7.99v-56.98c0-4.42 3.57-7.99 7.99-7.99s7.99 3.57 7.99 7.99zm-24.49-22.51v56.98c0 4.42-3.57 8.02-7.99 8.02s-7.99-3.6-7.99-8.02v-56.98c0-4.42 3.57-7.99 7.99-7.99s7.99 3.57 7.99 7.99z" fill="var(--panel-header-icon)" data-original="#000000" class=""></path>
    </g>
</svg>