<?xml version="1.0" standalone="no"?>
<!DOCTYPE svg PUBLIC "-//W3C//DTD SVG 20010904//EN"
 "http://www.w3.org/TR/2001/REC-SVG-20010904/DTD/svg10.dtd">
<svg version="1.0" xmlns="http://www.w3.org/2000/svg"
 width="64.000000pt" height="64.000000pt" viewBox="0 0 64.000000 64.000000"
 preserveAspectRatio="xMidYMid meet">

<g transform="translate(0.000000,64.000000) scale(0.100000,-0.100000)"
fill="#32cd32" stroke="#32cd32" stroke-width="7px" >
<path d="M90 627 c-53 -26 -60 -61 -60 -307 0 -194 2 -230 18 -260 23 -46 54
-61 127 -58 52 3 60 6 60 23 0 18 -8 20 -62 23 -94 4 -93 1 -93 272 0 188 3
229 16 248 15 21 21 22 189 22 212 0 205 4 205 -119 0 -87 9 -114 36 -104 11
4 14 28 14 99 0 166 -11 174 -252 174 -118 0 -181 -4 -198 -13z"/>
<path d="M141 477 c-24 -30 11 -38 155 -35 131 3 139 4 139 23 0 19 -8 20
-141 23 -111 2 -144 0 -153 -11z"/>
<path d="M141 377 c-24 -30 11 -38 155 -35 131 3 139 4 139 23 0 19 -8 20
-141 23 -111 2 -144 0 -153 -11z"/>
<path d="M419 214 c-80 -78 -89 -92 -100 -141 -17 -72 -8 -80 68 -58 48 14 70
28 127 83 37 37 74 80 81 97 22 49 -11 104 -64 105 -16 0 -50 -26 -112 -86z
m130 22 c9 -10 9 -16 1 -21 -13 -8 -42 14 -34 26 8 13 20 11 33 -5z m-85 -117
c-47 -48 -94 -69 -94 -42 0 8 23 39 52 69 49 52 52 53 70 37 18 -16 17 -18
-28 -64z"/>
<path d="M141 277 c-22 -27 11 -38 106 -35 80 3 88 5 88 23 0 18 -8 20 -91 23
-69 2 -94 -1 -103 -11z"/>
</g>
</svg>
