<svg xmlns="http://www.w3.org/2000/svg" version="1.1" xmlns:xlink="http://www.w3.org/1999/xlink" xmlns:svgjs="http://svgjs.com/svgjs" width="64" height="64" x="0" y="0" viewBox="0 0 32 32" style="enable-background:new 0 0 512 512" xml:space="preserve" class="">
    <g>
        <rect width="10.66" height="18.9" x="10.67" y="2" rx="5" fill="#000000" data-original="#000000" class=""></rect>
        <path d="M25.331 13.793a1 1 0 0 0-1 1 8.331 8.331 0 0 1-16.662 0 1 1 0 0 0-2 0A10.344 10.344 0 0 0 15 25.073V28h-3.333a1 1 0 1 0 0 2h8.666a1 1 0 0 0 0-2H17v-2.927a10.344 10.344 0 0 0 9.331-10.28 1 1 0 0 0-1-1z" fill="#000000" data-original="#000000" class=""></path>
    </g>
</svg>