<?xml version="1.0" standalone="no"?>
<!DOCTYPE svg PUBLIC "-//W3C//DTD SVG 20010904//EN"
 "http://www.w3.org/TR/2001/REC-SVG-20010904/DTD/svg10.dtd">
<svg version="1.0" xmlns="http://www.w3.org/2000/svg"
 width="25px" height="25px" viewBox="0 0 64.000000 64.000000"
 preserveAspectRatio="xMidYMid meet">

<g transform="translate(0.000000,64.000000) scale(0.100000,-0.100000)"
fill="var(--panel-header-icon)" stroke="none">
<path d="M122 588 c-7 -7 -12 -20 -12 -30 0 -13 -8 -18 -29 -18 -58 0 -61 -12
-61 -220 0 -158 3 -191 16 -204 13 -13 42 -16 160 -16 194 0 191 19 -3 22
l-148 3 -3 148 -3 147 261 0 260 0 0 -55 c0 -30 5 -55 10 -55 6 0 10 40 10 99
0 111 -9 131 -60 131 -22 0 -29 5 -32 21 -7 49 -69 49 -76 0 -3 -17 -10 -21
-37 -21 -27 0 -34 4 -37 21 -7 49 -69 49 -76 0 -3 -17 -10 -21 -38 -21 -26 0
-34 4 -34 18 0 22 -19 42 -40 42 -9 0 -21 -5 -28 -12z m46 -31 c2 -12 -3 -17
-17 -17 -12 0 -21 6 -21 13 0 31 32 34 38 4z m150 0 c2 -12 -3 -17 -17 -17
-12 0 -21 6 -21 13 0 31 32 34 38 4z m150 0 c2 -12 -3 -17 -17 -17 -12 0 -21
6 -21 13 0 31 32 34 38 4z m-358 -55 c0 -38 46 -56 70 -27 16 20 5 32 -14 16
-17 -15 -36 -7 -36 15 0 11 15 14 65 14 56 0 65 -3 65 -18 0 -38 46 -56 70
-27 16 20 5 32 -14 16 -17 -15 -36 -7 -36 15 0 11 15 14 65 14 56 0 65 -3 65
-18 0 -38 46 -56 70 -27 16 20 5 32 -14 16 -17 -15 -36 -7 -36 15 0 12 12 14
63 12 l62 -3 3 -37 3 -38 -260 0 -261 0 0 33 c0 41 5 47 42 47 20 0 28 -5 28
-18z"/>
<path d="M100 350 c0 -13 7 -20 20 -20 13 0 20 7 20 20 0 13 -7 20 -20 20 -13
0 -20 -7 -20 -20z"/>
<path d="M190 350 c0 -13 7 -20 20 -20 13 0 20 7 20 20 0 13 -7 20 -20 20 -13
0 -20 -7 -20 -20z"/>
<path d="M280 350 c0 -13 7 -20 20 -20 13 0 20 7 20 20 0 13 -7 20 -20 20 -13
0 -20 -7 -20 -20z"/>
<path d="M370 350 c0 -13 7 -20 20 -20 13 0 20 7 20 20 0 13 -7 20 -20 20 -13
0 -20 -7 -20 -20z"/>
<path d="M460 350 c0 -13 7 -20 20 -20 13 0 20 7 20 20 0 13 -7 20 -20 20 -13
0 -20 -7 -20 -20z"/>
<path d="M412 300 c-94 -57 -94 -183 0 -240 64 -39 146 -16 188 52 71 116 -72
259 -188 188z m152 -39 c26 -27 31 -39 31 -81 0 -43 -5 -54 -33 -82 -47 -48
-117 -48 -164 0 -28 28 -33 39 -33 81 0 52 25 92 70 112 37 16 96 3 129 -30z"/>
<path d="M435 281 c-50 -21 -77 -89 -56 -143 12 -32 65 -68 99 -68 55 0 112
56 112 110 0 74 -85 129 -155 101z m106 -40 c20 -20 29 -39 29 -61 0 -43 -47
-90 -90 -90 -43 0 -90 47 -90 90 0 43 47 90 90 90 22 0 41 -9 61 -29z"/>
<path d="M470 207 c0 -21 8 -41 20 -52 25 -23 39 -12 17 13 -10 10 -17 31 -17
45 0 15 -4 27 -10 27 -5 0 -10 -15 -10 -33z"/>
<path d="M100 270 c0 -13 7 -20 20 -20 13 0 20 7 20 20 0 13 -7 20 -20 20 -13
0 -20 -7 -20 -20z"/>
<path d="M190 270 c0 -13 7 -20 20 -20 13 0 20 7 20 20 0 13 -7 20 -20 20 -13
0 -20 -7 -20 -20z"/>
<path d="M280 270 c0 -13 7 -20 20 -20 13 0 20 7 20 20 0 13 -7 20 -20 20 -13
0 -20 -7 -20 -20z"/>
<path d="M100 190 c0 -13 7 -20 20 -20 13 0 20 7 20 20 0 13 -7 20 -20 20 -13
0 -20 -7 -20 -20z"/>
<path d="M190 190 c0 -13 7 -20 20 -20 13 0 20 7 20 20 0 13 -7 20 -20 20 -13
0 -20 -7 -20 -20z"/>
</g>
</svg>
