<?xml version="1.0" standalone="no"?>
<!DOCTYPE svg PUBLIC "-//W3C//DTD SVG 20010904//EN"
 "http://www.w3.org/TR/2001/REC-SVG-20010904/DTD/svg10.dtd">
<svg version="1.0" xmlns="http://www.w3.org/2000/svg"
 width="64.000000pt" height="64.000000pt" viewBox="0 0 64.000000 64.000000"
 preserveAspectRatio="xMidYMid meet">

<g transform="translate(0.000000,64.000000) scale(0.100000,-0.100000)"
fill="#000000" stroke="none">
<path d="M76 624 c-8 -20 -8 -588 0 -608 5 -14 36 -16 244 -16 208 0 239 2
244 16 3 9 6 121 6 249 l0 234 -72 3 -73 3 -3 68 -3 67 -168 0 c-145 0 -170
-2 -175 -16z m422 -206 c8 -8 9 -15 1 -25 -9 -10 -52 -13 -180 -13 -168 0
-187 4 -175 35 4 12 36 15 174 15 115 0 172 -4 180 -12z m5 -102 c3 -8 3 -17
0 -20 -4 -3 -87 -6 -185 -6 -171 0 -178 1 -178 20 0 19 7 20 179 20 144 0 180
-3 184 -14z m2 -106 c0 -13 -28 -15 -182 -18 -179 -2 -183 -2 -183 18 0 20 4
20 183 18 154 -3 182 -5 182 -18z m-140 -100 c0 -12 -19 -15 -110 -15 -97 0
-110 2 -113 18 -3 16 6 17 110 15 92 -2 113 -6 113 -18z"/>
<path d="M460 575 c0 -34 1 -35 37 -35 l37 0 -34 35 c-19 19 -35 35 -37 35 -2
0 -3 -16 -3 -35z"/>
</g>
</svg>
