<?xml version="1.0" standalone="no"?>
<!DOCTYPE svg PUBLIC "-//W3C//DTD SVG 20010904//EN"
 "http://www.w3.org/TR/2001/REC-SVG-20010904/DTD/svg10.dtd">
<svg version="1.0" xmlns="http://www.w3.org/2000/svg"
 width="2000.000000pt" height="2000.000000pt" viewBox="0 0 2000.000000 2000.000000"
 preserveAspectRatio="xMidYMid meet">

<g transform="translate(0.000000,2000.000000) scale(0.100000,-0.100000)"
fill="#000000" stroke="none">
<path d="M5638 9549 c-6 -4 -11 -55 -12 -120 l-1 -114 2855 -8 c1570 -4 2861
-10 2868 -12 9 -3 12 -65 12 -265 l0 -261 212 1 212 2 0 -160 1 -159 30 -26
c17 -15 33 -27 38 -27 4 0 7 21 7 48 0 48 21 92 43 92 8 0 11 -20 9 -68 -3
-65 -3 -68 20 -68 13 0 47 -1 77 -2 l54 -2 -23 -25 c-20 -21 -33 -25 -82 -25
-32 0 -58 -2 -58 -5 0 -3 12 -17 27 -30 28 -23 28 -23 9 -44 l-20 -22 -62 62
c-47 47 -65 59 -69 48 -8 -21 12 -72 25 -64 5 3 10 1 10 -5 0 -6 14 -23 30
-37 35 -29 37 -44 12 -60 -16 -9 -24 -6 -50 18 l-31 29 0 -663 c-2 -1964 -15
-5438 -21 -5448 -6 -8 -1101 -8 -4461 0 -2450 6 -4640 14 -4866 17 l-413 6 0
350 c0 328 -1 349 -17 344 -10 -3 -72 -19 -138 -36 -626 -161 -1019 -357
-1111 -555 -123 -263 205 -510 961 -724 307 -87 538 -138 970 -215 723 -127
1665 -222 2683 -271 3102 -148 6337 176 7370 737 194 105 322 239 322 337 0
17 6 31 16 35 9 3 73 6 142 6 156 0 732 25 1057 45 601 38 879 64 1600 150
272 33 699 102 995 161 878 177 1438 403 1580 640 31 52 35 66 35 129 0 84
-17 124 -86 200 -135 147 -473 305 -919 429 -231 64 -591 146 -641 146 -17 0
-90 -78 -659 -713 l-365 -407 -1983 0 c-1091 0 -1981 4 -1978 8 5 8 18 110 86
667 11 88 27 203 34 255 8 52 20 136 26 185 5 50 32 272 60 495 68 553 138
1135 151 1250 5 52 16 140 24 195 13 97 37 295 111 935 19 168 41 348 49 400
9 52 33 244 55 425 23 182 54 438 70 570 34 277 58 474 71 595 5 47 24 204 43
350 18 146 33 266 32 267 -1 1 -958 4 -2127 7 -1887 4 -2129 3 -2155 -10 -35
-18 -124 -31 -124 -17 0 5 5 14 12 21 16 16 -5 16 -34 1 -14 -7 -28 -8 -46 0
-30 11 -2536 21 -2554 10z"/>
</g>
</svg>
