<?xml version="1.0" standalone="no"?>
<!DOCTYPE svg PUBLIC "-//W3C//DTD SVG 20010904//EN"
 "http://www.w3.org/TR/2001/REC-SVG-20010904/DTD/svg10.dtd">
<svg version="1.0" xmlns="http://www.w3.org/2000/svg"
 width="512.000000pt" height="512.000000pt" viewBox="0 0 512.000000 512.000000"
 preserveAspectRatio="xMidYMid meet">

<g transform="translate(0.000000,512.000000) scale(0.100000,-0.100000)"
fill="#000000" stroke="none">
<path d="M2370 5113 c-371 -35 -653 -114 -961 -269 -406 -203 -782 -548 -1029
-944 -179 -286 -309 -655 -362 -1025 -17 -118 -17 -512 0 -630 42 -295 120
-553 242 -800 137 -280 272 -468 494 -691 221 -220 412 -357 681 -489 188 -92
309 -137 500 -185 500 -126 1002 -102 1490 71 148 52 406 182 540 271 365 242
666 578 866 963 181 348 271 694 286 1090 15 426 -73 832 -263 1214 -124 250
-263 447 -458 648 -215 223 -427 377 -711 518 -296 146 -572 225 -900 255
-102 9 -333 11 -415 3z m485 -409 c234 -32 439 -95 660 -203 433 -213 771
-551 985 -986 155 -315 222 -602 222 -955 0 -354 -67 -643 -222 -955 -216
-438 -550 -771 -985 -985 -315 -155 -602 -222 -955 -222 -351 0 -641 67 -955
222 -435 214 -772 551 -985 985 -155 315 -222 602 -222 955 0 353 67 640 222
955 213 434 551 771 985 985 399 196 812 263 1250 204z"/>
<path d="M2463 4129 c-334 -32 -636 -242 -783 -544 -67 -136 -90 -225 -97
-365 -5 -105 -4 -120 16 -157 25 -50 71 -87 127 -102 125 -33 244 68 244 207
0 69 34 192 72 265 42 80 155 193 233 233 108 57 159 69 285 69 126 0 177 -12
285 -69 78 -40 191 -153 233 -233 123 -234 81 -517 -104 -699 -108 -107 -217
-155 -392 -173 -111 -12 -150 -32 -190 -99 l-27 -47 -3 -267 c-3 -294 1 -328
50 -384 43 -49 83 -67 148 -67 65 0 105 18 148 67 44 50 52 91 52 266 l0 156
68 18 c323 86 592 360 684 697 20 72 23 107 23 254 0 200 -15 266 -95 430
-142 291 -448 511 -752 540 -128 12 -145 12 -225 4z"/>
<path d="M2485 1361 c-140 -63 -163 -243 -43 -334 146 -111 355 27 308 204
-21 78 -111 149 -190 149 -19 0 -53 -9 -75 -19z"/>
</g>
</svg>
