<?xml version="1.0" standalone="no"?>
<!DOCTYPE svg PUBLIC "-//W3C//DTD SVG 20010904//EN"
 "http://www.w3.org/TR/2001/REC-SVG-20010904/DTD/svg10.dtd">
<svg version="1.0" xmlns="http://www.w3.org/2000/svg"
 width="32.000000pt" height="32.000000pt" viewBox="0 0 32.000000 32.000000"
 preserveAspectRatio="xMidYMid meet">

<g transform="translate(0.000000,32.000000) scale(0.100000,-0.100000)"
fill="#000000" stroke="none">
<path d="M93 271 c-3 -11 -14 -21 -24 -24 -18 -5 -19 -13 -17 -109 l3 -103 83
-3 c76 -3 84 -1 89 17 3 10 13 21 24 24 17 5 19 15 19 89 0 75 -3 87 -23 106
-19 18 -35 22 -86 22 -53 0 -64 -3 -68 -19z m117 -21 c0 -13 7 -20 20 -20 18
0 20 -7 20 -70 l0 -70 -70 0 -70 0 0 90 0 90 50 0 c43 0 50 -3 50 -20z m-118
-97 l3 -78 58 -3 c81 -4 71 -22 -13 -22 l-70 0 0 90 c0 110 18 121 22 13z"/>
</g>
</svg>
