<svg id="Capa_1" width="25px" height="25px" data-name="Capa 1" xmlns="http://www.w3.org/2000/svg" viewBox="0 0 1080 1080">
    <path
        d="M1017.67,259.6H956.56V126a19,19,0,0,0-19-19H921.18V64.46c0-10.52-7.1-20.41-17.63-20.41H852.84c-10.53,0-20.42,9.89-20.42,20.41v42.48H821.65a19,19,0,0,0-19,19V848.7c0,36.14,37.15,77.09,55.42,95a5.13,5.13,0,0,0-.26,2v50.71a19,19,0,0,0,38,0V948.74c15.09-14,60.74-59.85,60.74-100V297.64h40.7V527.27a19,19,0,1,0,38,0V280C1035.3,269.49,1028.19,259.6,1017.67,259.6ZM870.46,82.09h12.68v24.85H870.46ZM840.66,145h77.86V259.6H840.66ZM918.52,848.7c0,16-20,43-38.93,62.76-18.89-19.78-38.93-46.66-38.93-62.76V297.64h77.86Z"
    />
    <path
        d="M689.07,1022.47H93.5c-26.9,0-48.8-20.75-48.8-46.27v-763c0-25.52,21.9-46.27,48.8-46.27h96.28v38H93.5c-5.83,0-10.76,3.78-10.76,8.23v763c0,4.46,4.93,8.23,10.76,8.23H689.07c5.82,0,10.75-3.77,10.75-8.23v-763c0-4.45-4.93-8.23-10.75-8.23H588.77v-38h100.3c26.91,0,48.79,20.75,48.79,46.27v763C737.86,1001.72,716,1022.47,689.07,1022.47Z"
    />
    <path
        d="M554,222.58l-9.77-53.26c-13.06-71.89-77-124-151.77-124-81.43,0-141.62,55.51-154.06,124l-9.76,53.26c-4.74,25.27,14.8,49.57,42.09,49.57H511.88C538.64,272.15,558.8,248.3,554,222.58Zm-278.2-46.41c9.23-50.82,54.05-92.82,116.66-92.82,56.42,0,104.48,39.06,114.37,92.82l9.76,53.25c.44,2-1.32,4.69-4.69,4.69H270.71c-2.81,0-5.28-2-4.69-4.69Z"
    />
    <path d="M218.86,522.41l-39.27-86a19,19,0,0,1,34.6-15.81L244.5,487l49.44-142.29a19,19,0,0,1,35.94,12.48L273.32,520a29.6,29.6,0,0,1-54.46,2.43Z" />
    <path d="M592.92,523.07H352c-10.5,0-19-7.85-19-18.35s8.52-18.34,19-18.34H592.92c10.5,0,19,7.85,19,18.34S603.42,523.07,592.92,523.07Z" />
    <path d="M218.86,790.47l-39.27-86a19,19,0,0,1,34.6-15.8l30.31,66.37,49.44-142.28a19,19,0,1,1,35.94,12.48L273.32,788.05a29.6,29.6,0,0,1-54.46,2.42Z" />
    <path d="M580.24,788H339.33c-10.5,0-19-9.88-19-20.38s8.52-20.38,19-20.38H580.24c10.5,0,19,9.88,19,20.38S590.74,788,580.24,788Z" />
    <path d="M441,153.22c0,26.75-21.94,48.44-48.81,48.44S343.37,180,343.37,153.22a48.82,48.82,0,0,1,97.63,0Z" />
</svg>
