<svg xmlns="http://www.w3.org/2000/svg" xmlns:xlink="http://www.w3.org/1999/xlink" width="50" zoomAndPan="magnify" viewBox="0 0 37.5 37.499999" height="50" preserveAspectRatio="xMidYMid meet" version="1.0">
    <defs>
        <clipPath id="id1"><path d="M 4.875 4.875 L 32.625 4.875 L 32.625 32.625 L 4.875 32.625 Z M 4.875 4.875 " clip-rule="nonzero" /></clipPath>
    </defs>
    <g clip-path="url(#id1)">
        <path
            fill="#54656f"
            d="M 18.75 4.875 C 17.839844 4.875 16.9375 4.964844 16.042969 5.144531 C 15.152344 5.320312 14.285156 5.585938 13.441406 5.933594 C 12.601562 6.28125 11.800781 6.707031 11.042969 7.214844 C 10.285156 7.722656 9.585938 8.296875 8.941406 8.941406 C 8.296875 9.585938 7.722656 10.285156 7.214844 11.042969 C 6.707031 11.800781 6.28125 12.601562 5.933594 13.441406 C 5.585938 14.285156 5.320312 15.152344 5.144531 16.042969 C 4.964844 16.9375 4.875 17.839844 4.875 18.75 C 4.875 19.664062 4.964844 20.566406 5.144531 21.457031 C 5.320312 22.351562 5.585938 23.21875 5.933594 24.0625 C 6.28125 24.902344 6.707031 25.703125 7.214844 26.460938 C 7.722656 27.21875 8.296875 27.917969 8.941406 28.5625 C 9.585938 29.207031 10.285156 29.78125 11.042969 30.289062 C 11.800781 30.792969 12.601562 31.222656 13.441406 31.570312 C 14.285156 31.917969 15.152344 32.183594 16.042969 32.359375 C 16.9375 32.539062 17.839844 32.625 18.75 32.625 C 19.664062 32.625 20.566406 32.539062 21.457031 32.359375 C 22.351562 32.183594 23.21875 31.917969 24.0625 31.570312 C 24.902344 31.222656 25.703125 30.792969 26.460938 30.289062 C 27.21875 29.78125 27.917969 29.207031 28.5625 28.5625 C 29.207031 27.917969 29.78125 27.21875 30.289062 26.460938 C 30.792969 25.703125 31.222656 24.902344 31.570312 24.0625 C 31.917969 23.21875 32.183594 22.351562 32.359375 21.457031 C 32.539062 20.566406 32.625 19.664062 32.625 18.75 C 32.625 17.839844 32.539062 16.9375 32.359375 16.046875 C 32.179688 15.152344 31.917969 14.285156 31.570312 13.441406 C 31.21875 12.601562 30.792969 11.800781 30.285156 11.042969 C 29.78125 10.285156 29.207031 9.585938 28.5625 8.941406 C 27.917969 8.296875 27.214844 7.722656 26.460938 7.214844 C 25.703125 6.710938 24.902344 6.28125 24.0625 5.933594 C 23.21875 5.585938 22.351562 5.320312 21.457031 5.144531 C 20.566406 4.964844 19.664062 4.878906 18.75 4.875 Z M 26.273438 19.554688 L 19.554688 19.554688 L 19.554688 26.273438 C 19.554688 26.492188 19.476562 26.683594 19.320312 26.839844 C 19.164062 26.996094 18.972656 27.074219 18.75 27.074219 C 18.53125 27.074219 18.339844 26.996094 18.183594 26.839844 C 18.027344 26.683594 17.945312 26.492188 17.945312 26.273438 L 17.945312 19.554688 L 11.230469 19.554688 C 11.007812 19.558594 10.820312 19.476562 10.660156 19.320312 C 10.503906 19.164062 10.425781 18.972656 10.425781 18.75 C 10.425781 18.527344 10.503906 18.339844 10.660156 18.183594 C 10.820312 18.023438 11.007812 17.945312 11.230469 17.945312 L 17.945312 17.945312 L 17.945312 11.230469 C 17.945312 11.007812 18.027344 10.820312 18.183594 10.664062 C 18.339844 10.503906 18.53125 10.425781 18.75 10.425781 C 18.972656 10.425781 19.164062 10.503906 19.320312 10.664062 C 19.476562 10.820312 19.554688 11.007812 19.554688 11.230469 L 19.554688 17.945312 L 26.273438 17.945312 C 26.492188 17.945312 26.683594 18.027344 26.839844 18.183594 C 27 18.339844 27.078125 18.53125 27.078125 18.75 C 27.078125 18.972656 27 19.164062 26.839844 19.320312 C 26.683594 19.476562 26.492188 19.554688 26.273438 19.554688 Z M 26.273438 19.554688 "
            fill-opacity="1"
            fill-rule="nonzero"
        />
    </g>
</svg>
