<?xml version="1.0" standalone="no"?>
<!DOCTYPE svg PUBLIC "-//W3C//DTD SVG 20010904//EN"
 "http://www.w3.org/TR/2001/REC-SVG-20010904/DTD/svg10.dtd">
<svg version="1.0" xmlns="http://www.w3.org/2000/svg"
 width="64.000000pt" height="64.000000pt" viewBox="0 0 64.000000 64.000000"
 preserveAspectRatio="xMidYMid meet">

<g transform="translate(0.000000,64.000000) scale(0.100000,-0.100000)"
fill="#000000" stroke="none">
<path d="M195 617 c-8 -13 -13 -32 -9 -41 3 -9 64 -68 135 -132 71 -63 129
-119 129 -124 0 -5 -58 -61 -129 -124 -71 -64 -132 -123 -135 -132 -10 -27 21
-66 49 -62 21 3 374 303 374 318 0 14 -354 315 -374 318 -16 2 -29 -4 -40 -21z"/>
<path d="M46 544 c-9 -8 -16 -23 -16 -32 0 -10 45 -57 99 -105 l100 -88 -100
-91 c-54 -49 -99 -98 -99 -107 0 -22 19 -41 41 -41 10 0 76 53 148 117 127
113 131 117 114 136 -33 36 -253 227 -262 227 -5 0 -17 -7 -25 -16z"/>
</g>
</svg>
