<svg xmlns="http://www.w3.org/2000/svg" viewBox="0 0 1080 1080">
    <path d="M268.85,766.66H134.05A14.16,14.16,0,0,1,122.7,744L241.4,585a40.19,40.19,0,0,0-80.14,4.39H132.92a68.53,68.53,0,0,1,137.06,0,14.13,14.13,0,0,1-2.82,8.47L162.3,738.33H268.85Z" />
    <path d="M436.26,766.66H407.93V684H330.27a14.16,14.16,0,0,1-11.71-22.14L410.39,527a14.17,14.17,0,0,1,25.87,8V655.69h28.86V684H436.26Zm-79.21-111h50.88V581Z" />
    <rect x="551.03" y="255.4" width="28.33" height="56.4" />
    <rect x="551" y="789.31" width="28.33" height="56.4" />
    <rect x="803.94" y="536.41" width="56.4" height="28.33" />
    <path d="M564.75,563.26a14.11,14.11,0,0,1-10-4.15l-52.24-52.24,20-20,42.23,42.23L687.31,406.5l20,20L574.76,559.11A14.09,14.09,0,0,1,564.75,563.26Z" />
    <path d="M200,335.23a69.81,69.81,0,0,1,0-98.73l60.36-60.37a69.81,69.81,0,0,1,98.75,0l-20,20a41.49,41.49,0,0,0-58.67,0L220,256.53a41.48,41.48,0,0,0,0,58.66Z" />
    <path d="M225.75,355.13h0a14.16,14.16,0,0,1-10-4.15L200,335.22l20-20,5.72,5.73,119-119-5.72-5.72,20-20,15.74,15.74a14.16,14.16,0,0,1,0,20L235.77,351A14.16,14.16,0,0,1,225.75,355.13Z" />
    <path d="M930.37,335.23l-20-20a41.48,41.48,0,0,0,0-58.66L850,196.16a41.5,41.5,0,0,0-58.68,0l-20-20a69.79,69.79,0,0,1,98.74,0l60.37,60.37a69.83,69.83,0,0,1,0,98.73Z" />
    <path d="M904.61,355.13a14.14,14.14,0,0,1-10-4.15L755.52,211.9a14.17,14.17,0,0,1,0-20l15.74-15.74,20,20-5.72,5.72,119,119,5.72-5.72,20,20L914.64,351a14.16,14.16,0,0,1-10,4.15Z" />
    <path
        d="M565.16,897.15A345.85,345.85,0,0,1,319.51,795.67l20-20.08a317.67,317.67,0,0,0,225.65,93.23c176.3,0,319.73-143.43,319.73-319.72S741.46,229.37,565.16,229.37c-150.07,0-281.6,106.38-312.73,252.94l-27.72-5.89C258.61,316.86,401.79,201,565.16,201c191.92,0,348.06,156.14,348.06,348.06S757.08,897.15,565.16,897.15Z"
    />
    <rect x="817.98" y="788.45" width="28.33" height="147.45" transform="translate(-365.92 840.92) rotate(-45)" />
    <rect x="224.5" y="848.01" width="147.45" height="28.33" transform="translate(-522.3 463.39) rotate(-45)" />
</svg>
