<?xml version="1.0" standalone="no"?>
<!DOCTYPE svg PUBLIC "-//W3C//DTD SVG 20010904//EN"
 "http://www.w3.org/TR/2001/REC-SVG-20010904/DTD/svg10.dtd">
<svg version="1.0" xmlns="http://www.w3.org/2000/svg"
 width="64.000000pt" height="64.000000pt" viewBox="0 0 64.000000 64.000000"
 preserveAspectRatio="xMidYMid meet">

<g transform="translate(0.000000,64.000000) scale(0.100000,-0.100000)"
fill="#000000" stroke="none">
<path d="M35 605 l-25 -24 0 -261 0 -261 25 -24 24 -25 261 0 261 0 24 25 25
24 0 261 0 261 -25 24 -24 25 -261 0 -261 0 -24 -25z m540 -285 l0 -255 -255
0 -255 0 -3 245 c-1 134 0 250 3 257 3 11 59 13 257 11 l253 -3 0 -255z"/>
<path d="M356 350 l-92 -90 -36 37 c-23 23 -42 34 -52 30 -27 -10 -18 -30 33
-81 l49 -49 29 21 c15 11 66 59 112 105 58 59 82 90 78 101 -4 9 -12 16 -18
16 -6 0 -53 -40 -103 -90z"/>
</g>
</svg>
