<svg width="24" height="24" viewBox="0 0 24 24" fill="none" xmlns="http://www.w3.org/2000/svg"><path d="M15.921 16.865A7.336 7.336 0 0 1 4.787 12a7.321 7.321 0 0 1 2.227-4.044L4.928 5.872l.943-.943 13.2 13.2-.944.942-2.206-2.206zM7.957 8.9A5.977 5.977 0 0 0 6.149 12a6.003 6.003 0 0 0 8.8 3.892l-1.352-1.352a3 3 0 0 1-4.137-4.137L7.957 8.9zm4.652 4.652-2.161-2.161a1.667 1.667 0 0 0 2.16 2.16l.001.001zm5.262 1.51-.954-.954A5.958 5.958 0 0 0 17.851 12a6.004 6.004 0 0 0-7.483-4.441L9.316 6.507A7.336 7.336 0 0 1 19.213 12a7.299 7.299 0 0 1-1.342 3.061zm-6.056-6.057a3 3 0 0 1 3.18 3.18l-3.18-3.18z" fill="#D1D3D4"/></svg>