<svg xmlns="http://www.w3.org/2000/svg" xmlns:xlink="http://www.w3.org/1999/xlink" version="1.1" id="Layer_1" x="0px" y="0px" width="120px" viewBox="0 0 128 128" enable-background="new 0 0 128 128" xml:space="preserve" height="120px">
<path fill="none" opacity="1.000000" stroke="none" d=" M1.000000,57.000000   C1.000000,46.645771 1.000000,36.291542 1.450642,25.468681   C10.990541,25.025339 10.990519,25.025339 10.999880,34.015614   C11.004200,38.163929 11.053137,42.312824 10.998661,46.460369   C10.956565,49.665451 11.648924,52.011681 15.605604,51.966721   C19.669817,51.920536 20.013262,49.317463 19.999113,46.250019   C19.975386,41.106236 20.117340,35.958950 19.970909,30.819370   C19.861553,26.981064 21.095409,24.752430 25.325117,24.966003   C28.707205,25.136776 30.083944,23.367886 29.946140,20.042416   C29.804825,16.632202 27.666691,16.014845 24.894260,16.016846   C16.929516,16.022594 8.964755,16.007128 1.000000,16.000000   C1.000000,11.011015 1.000000,6.022029 1.000000,1.016522   C43.561657,1.016522 86.123322,1.016522 129.000000,1.016522   C129.000000,19.353025 129.000000,37.707855 128.542969,56.531342   C120.330070,55.531437 115.019592,58.761490 111.291092,65.448601   C110.448326,66.960098 108.773415,68.007607 106.474617,70.251663   C106.240799,66.266777 106.010635,63.841576 105.977760,61.413704   C105.934441,58.213310 104.266769,57.042328 101.240410,57.011856   C98.121666,56.980453 96.028854,57.857327 96.037888,61.439060   C96.060577,70.428391 96.066750,79.417946 96.025536,88.407173   C96.009544,91.896416 97.869446,92.995476 101.086182,92.997429   C104.412354,92.999443 106.001778,91.620445 105.999870,88.238373   C105.998344,85.535172 106.247047,82.831833 106.384682,80.128563   C106.813568,79.910538 107.242455,79.692513 107.671341,79.474487   C113.279770,86.535362 117.528534,95.908058 129.000000,93.000000   C129.000000,104.976830 129.000000,116.953651 129.000000,128.965240   C86.438911,128.965240 43.877789,128.965240 1.000000,128.965240   C1.000000,108.313515 1.000000,87.625420 1.450642,66.468689   C10.990541,66.025337 10.990519,66.025337 10.999881,75.015594   C11.004200,79.163910 11.053133,83.312813 10.998662,87.460350   C10.956570,90.665421 11.648885,93.011681 15.605590,92.966713   C19.669804,92.920525 20.013264,90.317490 19.999113,87.250038   C19.975386,82.106255 20.117338,76.958961 19.970911,71.819382   C19.861557,67.981094 21.095362,65.752403 25.325102,65.966003   C28.707190,66.136795 30.083939,64.367920 29.946138,61.042439   C29.804829,57.632225 27.666712,57.014843 24.894274,57.016846   C16.929523,57.022594 8.964759,57.007130 1.000000,57.000000  M77.256088,19.319338   C77.173630,26.807274 76.900246,34.299686 77.075592,41.781578   C77.193237,46.801968 80.699394,50.611320 85.043846,50.949829   C87.827103,51.166695 90.640991,50.990482 93.706375,50.990482   C93.706375,49.201668 93.706375,47.824165 93.706375,45.999920   C91.841698,45.999920 90.211288,46.010487 88.581062,45.998032   C82.571808,45.952137 82.022202,45.409340 82.003944,39.378094   C81.986801,33.714169 82.080872,28.048632 81.973534,22.386696   C81.902168,18.622257 83.512741,16.926874 87.319031,16.973169   C95.147491,17.068388 102.978584,17.062901 110.807251,16.976227   C114.692398,16.933212 116.099525,18.825172 116.028603,22.512951   C115.916527,28.341358 115.899796,34.175823 116.035278,40.003246   C116.122490,43.754646 115.081284,45.968258 110.793335,46.052113   C102.398956,46.216274 102.039497,46.137199 101.326164,40.533928   C108.343803,38.840115 111.717545,31.978689 107.958519,27.032228   C106.555534,25.186068 105.128441,23.358229 102.942703,20.524071   C101.987228,22.223455 101.021324,23.941402 99.485435,26.673105   C98.631653,24.640413 97.956848,23.033812 97.129440,21.063894   C96.003891,21.129801 94.604256,21.211754 93.413269,21.281492   C91.836090,25.327362 89.802696,28.856577 89.147148,32.625450   C88.193008,38.110889 92.424820,39.777775 96.797737,40.441460   C97.282341,49.061481 99.362938,50.995457 107.777664,50.999828   C109.110367,51.000523 110.444214,51.034866 111.775574,50.992363   C116.992348,50.825806 120.882721,47.143436 120.969009,42.008553   C121.086555,35.013847 121.084152,28.014280 120.969841,21.019466   C120.885941,15.885028 117.000267,12.081414 111.803505,12.025901   C103.308502,11.935151 94.811264,11.942754 86.316093,12.025216   C81.883690,12.068240 78.769608,14.048875 77.256088,19.319338  M66.897949,43.184856   C67.588928,39.484825 68.841309,35.786907 68.855240,32.084324   C68.885216,24.117756 63.489651,17.557880 56.062271,15.595551   C46.781776,13.143625 38.060429,16.255615 33.264614,23.730309   C29.502754,29.593491 30.111996,40.691864 34.481171,45.891899   C43.052216,56.092846 59.305645,55.063656 66.897949,43.184856  M49.508553,86.511826   C50.114231,87.064392 50.871693,87.518997 51.301559,88.185036   C54.722984,93.486176 56.589527,94.130203 63.063702,91.781059   C62.670658,90.269554 62.403294,88.658524 61.837074,87.160446   C58.659081,78.752281 55.261925,70.423599 52.254303,61.956001   C51.009922,58.452587 49.162922,56.851231 45.360165,56.932095   C41.617180,57.011681 38.599197,57.340073 37.101524,61.596645   C34.119148,70.072945 30.644661,78.376266 27.672394,86.855820   C27.088305,88.522171 27.854259,90.661728 27.997576,92.583046   C30.803684,92.130119 35.488426,92.488312 36.094162,91.085365   C38.873898,84.647171 43.836308,85.962440 49.508553,86.511826  M58.031506,100.738060   C58.031506,103.262901 58.031506,105.787750 58.031506,108.826462   C52.979568,105.312965 52.602634,96.633202 44.354622,99.455040   C44.354622,106.015182 44.354622,112.404037 44.354622,118.742996   C46.322472,118.742996 47.930401,118.742996 49.782558,118.742996   C49.942719,115.706154 50.091679,112.881729 50.236736,110.131256   C55.062668,112.822853 55.553558,121.430420 64.256042,118.320831   C64.256042,115.549393 64.256042,112.597809 64.256042,109.418640   C68.977501,112.917496 69.687042,120.973511 77.641479,118.596756   C77.641479,111.987946 77.641479,105.596199 77.641479,99.259888   C75.674599,99.259888 74.068138,99.259888 72.215324,99.259888   C72.056213,102.298248 71.908417,105.120438 71.715797,108.798668   C69.747772,106.160172 68.143242,104.466469 67.076904,102.483391   C64.912506,98.458183 61.929089,98.002823 58.031506,100.738060  M66.000008,74.501053   C66.007919,78.995583 66.067314,83.490799 66.006439,87.984398   C65.962631,91.217926 67.222969,93.016182 70.675674,92.979996   C76.334572,92.920662 81.994446,92.954636 87.653908,92.949669   C90.503914,92.947159 91.902824,91.587326 91.953400,88.671997   C92.007492,85.554939 90.636032,84.013428 87.498848,84.035896   C85.501709,84.050201 83.496796,83.887215 81.508286,84.011101   C77.373741,84.268661 75.855354,82.298851 75.970207,78.317841   C76.123749,72.995659 75.929199,67.664352 76.005669,62.338711   C76.054291,58.953144 74.951363,57.037590 71.161819,56.983051   C67.155945,56.925392 65.873726,58.856514 65.987625,62.516651   C66.101479,66.175201 66.004532,69.840309 66.000008,74.501053  M38.965961,116.541023   C43.286861,111.302345 43.109051,103.672684 38.586838,100.273407   C33.184425,96.212509 25.459400,97.733116 21.982019,103.541939   C19.961668,106.916832 20.681692,112.988060 23.454634,115.959129   C27.040941,119.801682 32.734581,120.229317 38.965961,116.541023  M16.427889,113.050194   C13.555357,115.530373 11.785820,112.878532 10.974915,111.147079   C10.249592,109.598351 10.636866,105.864586 11.432511,105.576233   C13.923549,104.673431 16.839577,104.943268 19.834194,104.742432   C19.834194,103.564949 19.834194,101.606140 19.834194,99.700218   C9.604005,95.722252 2.649793,100.829987 4.016268,111.164513   C4.725325,116.527054 9.949593,119.729210 16.706467,118.996666   C22.188105,118.402374 19.187231,114.321594 20.119570,111.347107   C18.781519,111.863327 17.885036,112.209198 16.427889,113.050194  M81.007072,116.242149   C81.494583,117.132729 81.937767,118.762680 82.476723,118.794991   C86.230583,119.020042 90.004303,118.913887 94.105057,118.913887   C93.901550,116.925735 93.758659,115.529747 93.658051,114.546852   C90.984497,113.955048 88.933403,113.501022 86.882301,113.047005   C87.002518,112.484917 87.122734,111.922836 87.242943,111.360748   C88.992928,111.140808 90.742905,110.920860 92.723122,110.671982   C92.723122,109.184532 92.723122,107.795715 92.723122,106.400833   C90.691833,106.055016 88.909439,105.751564 87.127052,105.448120   C87.149414,105.095139 87.171768,104.742157 87.194130,104.389183   C89.342934,104.156013 91.491737,103.922844 93.943619,103.656792   C93.852493,102.037216 93.775307,100.665298 93.705490,99.424316   C89.250587,99.424316 85.212616,99.424316 81.001381,99.424316   C81.001381,104.993095 81.001381,110.138489 81.007072,116.242149  M110.998100,115.755890   C110.906029,114.398643 110.813957,113.041397 110.781960,112.569603   C107.923035,112.569603 105.024307,113.399422 103.517418,112.307854   C102.305054,111.429642 101.865135,106.864151 102.678200,106.320305   C104.804672,104.897926 107.805344,104.782463 110.844383,104.053146   C111.241730,98.470245 109.024323,96.679779 102.688202,98.734978   C95.929352,100.927292 93.228928,111.324074 98.064774,116.535454   C101.338623,120.063545 109.133614,120.107460 110.998100,115.755890  M115.999969,109.634262   C115.999969,112.695564 115.999969,115.756859 115.999969,119.051704   C118.397003,118.934395 119.988190,118.856514 122.076645,118.754303   C122.076645,113.725723 122.076645,109.000259 122.076645,104.377701   C124.000153,104.039391 125.406891,103.791969 126.758057,103.554321   C126.758057,101.994049 126.758057,100.733749 126.758057,99.265968   C121.811913,99.265968 117.089432,99.265968 111.645035,99.265968   C112.219589,101.092491 112.612518,103.671600 113.102905,103.690269   C117.034927,103.839935 115.776146,106.643745 115.999969,109.634262  z"/>
<path fill="var(--textSwal)" opacity="1.000000" stroke="none" d=" M129.000000,92.600006   C117.528534,95.908058 113.279770,86.535362 107.671341,79.474487   C107.242455,79.692513 106.813568,79.910538 106.384682,80.128563   C106.247047,82.831833 105.998344,85.535172 105.999870,88.238373   C106.001778,91.620445 104.412354,92.999443 101.086182,92.997429   C97.869446,92.995476 96.009544,91.896416 96.025536,88.407173   C96.066750,79.417946 96.060577,70.428391 96.037888,61.439060   C96.028854,57.857327 98.121666,56.980453 101.240410,57.011856   C104.266769,57.042328 105.934441,58.213310 105.977760,61.413704   C106.010635,63.841576 106.240799,66.266777 106.474617,70.251663   C108.773415,68.007607 110.448326,66.960098 111.291092,65.448601   C115.019592,58.761490 120.330070,55.531437 128.542969,57.000000   C129.000000,57.750000 129.000000,58.500000 128.678925,59.729809   C124.913139,64.404251 121.397209,68.544167 118.091774,72.845833   C117.521271,73.588272 117.328606,75.436546 117.837128,76.061714   C121.429939,80.478706 125.251457,84.709679 129.000000,89.000000   C129.000000,90.066673 129.000000,91.133339 129.000000,92.600006  z"/>
<path fill="var(--textSwal)" opacity="1.000000" stroke="none" d=" M1.000000,16.449980   C8.964755,16.007128 16.929516,16.022594 24.894260,16.016846   C27.666691,16.014845 29.804825,16.632202 29.946140,20.042416   C30.083944,23.367886 28.707205,25.136776 25.325117,24.966003   C21.095409,24.752430 19.861553,26.981064 19.970909,30.819370   C20.117340,35.958950 19.975386,41.106236 19.999113,46.250019   C20.013262,49.317463 19.669817,51.920536 15.605604,51.966721   C11.648924,52.011681 10.956565,49.665451 10.998661,46.460369   C11.053137,42.312824 11.004200,38.163929 10.999880,34.015614   C10.990519,25.025339 10.990541,25.025339 1.450642,25.000025   C1.000000,22.299986 1.000000,19.599974 1.000000,16.449980  z"/>
<path fill="var(--textSwal)" opacity="1.000000" stroke="none" d=" M1.000000,57.449982   C8.964759,57.007130 16.929523,57.022594 24.894274,57.016846   C27.666712,57.014843 29.804829,57.632225 29.946138,61.042439   C30.083939,64.367920 28.707190,66.136795 25.325102,65.966003   C21.095362,65.752403 19.861557,67.981094 19.970911,71.819382   C20.117338,76.958961 19.975386,82.106255 19.999113,87.250038   C20.013264,90.317490 19.669804,92.920525 15.605590,92.966713   C11.648885,93.011681 10.956570,90.665421 10.998662,87.460350   C11.053133,83.312813 11.004200,79.163910 10.999881,75.015594   C10.990519,66.025337 10.990541,66.025337 1.450642,66.000031   C1.000000,63.299988 1.000000,60.599972 1.000000,57.449982  z"/>
<path fill="none" opacity="1.000000" stroke="none" d=" M129.000000,88.531342   C125.251457,84.709679 121.429939,80.478706 117.837128,76.061714   C117.328606,75.436546 117.521271,73.588272 118.091774,72.845833   C121.397209,68.544167 124.913139,64.404251 128.678925,60.104809   C129.000000,69.354225 129.000000,78.708458 129.000000,88.531342  z"/>
<path fill="#15CE5F" opacity="1.000000" stroke="none" d=" M77.519066,18.984024   C78.769608,14.048875 81.883690,12.068240 86.316093,12.025216   C94.811264,11.942754 103.308502,11.935151 111.803505,12.025901   C117.000267,12.081414 120.885941,15.885028 120.969841,21.019466   C121.084152,28.014280 121.086555,35.013847 120.969009,42.008553   C120.882721,47.143436 116.992348,50.825806 111.775574,50.992363   C110.444214,51.034866 109.110367,51.000523 107.777664,50.999828   C99.362938,50.995457 97.282341,49.061481 96.797737,40.441460   C92.424820,39.777775 88.193008,38.110889 89.147148,32.625450   C89.802696,28.856577 91.836090,25.327362 93.413269,21.281492   C94.604256,21.211754 96.003891,21.129801 97.129440,21.063894   C97.956848,23.033812 98.631653,24.640413 99.485435,26.673105   C101.021324,23.941402 101.987228,22.223455 102.942703,20.524071   C105.128441,23.358229 106.555534,25.186068 107.958519,27.032228   C111.717545,31.978689 108.343803,38.840115 101.326164,40.533928   C102.039497,46.137199 102.398956,46.216274 110.793335,46.052113   C115.081284,45.968258 116.122490,43.754646 116.035278,40.003246   C115.899796,34.175823 115.916527,28.341358 116.028603,22.512951   C116.099525,18.825172 114.692398,16.933212 110.807251,16.976227   C102.978584,17.062901 95.147491,17.068388 87.319031,16.973169   C83.512741,16.926874 81.902168,18.622257 81.973534,22.386696   C82.080872,28.048632 81.986801,33.714169 82.003944,39.378094   C82.022202,45.409340 82.571808,45.952137 88.581062,45.998032   C90.211288,46.010487 91.841698,45.999920 93.706375,45.999920   C93.706375,47.824165 93.706375,49.201668 93.706375,50.990482   C90.640991,50.990482 87.827103,51.166695 85.043846,50.949829   C80.699394,50.611320 77.193237,46.801968 77.075592,41.781578   C76.900246,34.299686 77.173630,26.807274 77.519066,18.984024  M99.597206,29.000792   C93.678406,29.536266 93.151115,30.264797 94.950615,35.216373   C96.713547,35.313541 98.584175,35.888721 100.068893,35.366566   C101.573601,34.837383 103.347832,33.453876 103.849251,32.036140   C104.837662,29.241453 102.709038,28.810360 99.597206,29.000792  z"/>
<path fill="var(--textSwal)" opacity="1.000000" stroke="none" d=" M66.722595,43.523144   C59.305645,55.063656 43.052216,56.092846 34.481171,45.891899   C30.111996,40.691864 29.502754,29.593491 33.264614,23.730309   C38.060429,16.255615 46.781776,13.143625 56.062271,15.595551   C63.489651,17.557880 68.885216,24.117756 68.855240,32.084324   C68.841309,35.786907 67.588928,39.484825 66.722595,43.523144  M43.776020,40.776073   C44.600674,41.314095 45.359535,42.035019 46.261066,42.359333   C50.814671,43.997414 55.025429,42.581680 57.477764,38.599377   C60.028152,34.457840 59.111263,30.473173 56.085915,27.190092   C53.082802,23.931141 49.230087,23.329197 45.257195,25.710823   C41.544117,27.936697 40.126926,32.511337 41.721657,37.079273   C42.098984,38.160095 42.757969,39.142578 43.776020,40.776073  z"/>
<path fill="var(--textSwal)" opacity="1.000000" stroke="none" d=" M49.118134,86.387161   C43.836308,85.962440 38.873898,84.647171 36.094162,91.085365   C35.488426,92.488312 30.803684,92.130119 27.997576,92.583046   C27.854259,90.661728 27.088305,88.522171 27.672394,86.855820   C30.644661,78.376266 34.119148,70.072945 37.101524,61.596645   C38.599197,57.340073 41.617180,57.011681 45.360165,56.932095   C49.162922,56.851231 51.009922,58.452587 52.254303,61.956001   C55.261925,70.423599 58.659081,78.752281 61.837074,87.160446   C62.403294,88.658524 62.670658,90.269554 63.063702,91.781059   C56.589527,94.130203 54.722984,93.486176 51.301559,88.185036   C50.871693,87.518997 50.114231,87.064392 49.118134,86.387161  M42.142517,76.439804   C43.647282,76.695465 45.152042,76.951126 46.656807,77.206779   C46.197624,74.727303 45.738438,72.247833 45.279255,69.768356   C44.833652,69.802010 44.388054,69.835663 43.942451,69.869316   C43.330746,71.847839 42.719040,73.826355 42.142517,76.439804  z"/>
<path fill="#15CE5F" opacity="1.000000" stroke="none" d=" M58.092583,100.302933   C61.929089,98.002823 64.912506,98.458183 67.076904,102.483391   C68.143242,104.466469 69.747772,106.160172 71.715797,108.798668   C71.908417,105.120438 72.056213,102.298248 72.215324,99.259888   C74.068138,99.259888 75.674599,99.259888 77.641479,99.259888   C77.641479,105.596199 77.641479,111.987946 77.641479,118.596756   C69.687042,120.973511 68.977501,112.917496 64.256042,109.418640   C64.256042,112.597809 64.256042,115.549393 64.256042,118.320831   C55.553558,121.430420 55.062668,112.822853 50.236736,110.131256   C50.091679,112.881729 49.942719,115.706154 49.782558,118.742996   C47.930401,118.742996 46.322472,118.742996 44.354622,118.742996   C44.354622,112.404037 44.354622,106.015182 44.354622,99.455040   C52.602634,96.633202 52.979568,105.312965 58.031506,108.826462   C58.031506,105.787750 58.031506,103.262901 58.092583,100.302933  z"/>
<path fill="var(--textSwal)" opacity="1.000000" stroke="none" d=" M66.000000,74.001801   C66.004532,69.840309 66.101479,66.175201 65.987625,62.516651   C65.873726,58.856514 67.155945,56.925392 71.161819,56.983051   C74.951363,57.037590 76.054291,58.953144 76.005669,62.338711   C75.929199,67.664352 76.123749,72.995659 75.970207,78.317841   C75.855354,82.298851 77.373741,84.268661 81.508286,84.011101   C83.496796,83.887215 85.501709,84.050201 87.498848,84.035896   C90.636032,84.013428 92.007492,85.554939 91.953400,88.671997   C91.902824,91.587326 90.503914,92.947159 87.653908,92.949669   C81.994446,92.954636 76.334572,92.920662 70.675674,92.979996   C67.222969,93.016182 65.962631,91.217926 66.006439,87.984398   C66.067314,83.490799 66.007919,78.995583 66.000000,74.001801  z"/>
<path fill="#15CE5F" opacity="1.000000" stroke="none" d=" M38.672661,116.810547   C32.734581,120.229317 27.040941,119.801682 23.454634,115.959129   C20.681692,112.988060 19.961668,106.916832 21.982019,103.541939   C25.459400,97.733116 33.184425,96.212509 38.586838,100.273407   C43.109051,103.672684 43.286861,111.302345 38.672661,116.810547  M30.697517,104.017311   C29.489920,106.031967 27.381218,108.054047 27.397736,110.058609   C27.408401,111.352669 30.449074,113.399353 32.296032,113.600395   C33.353775,113.715523 35.604778,110.901794 35.776531,109.246674   C36.036541,106.741035 35.159740,103.919411 30.697517,104.017311  z"/>
<path fill="#15CE5F" opacity="1.000000" stroke="none" d=" M16.708221,112.802628   C17.885036,112.209198 18.781519,111.863327 20.119570,111.347107   C19.187231,114.321594 22.188105,118.402374 16.706467,118.996666   C9.949593,119.729210 4.725325,116.527054 4.016268,111.164513   C2.649793,100.829987 9.604005,95.722252 19.834194,99.700218   C19.834194,101.606140 19.834194,103.564949 19.834194,104.742432   C16.839577,104.943268 13.923549,104.673431 11.432511,105.576233   C10.636866,105.864586 10.249592,109.598351 10.974915,111.147079   C11.785820,112.878532 13.555357,115.530373 16.708221,112.802628  z"/>
<path fill="#15CE5F" opacity="1.000000" stroke="none" d=" M81.004227,115.763016   C81.001381,110.138489 81.001381,104.993095 81.001381,99.424316   C85.212616,99.424316 89.250587,99.424316 93.705490,99.424316   C93.775307,100.665298 93.852493,102.037216 93.943619,103.656792   C91.491737,103.922844 89.342934,104.156013 87.194130,104.389183   C87.171768,104.742157 87.149414,105.095139 87.127052,105.448120   C88.909439,105.751564 90.691833,106.055016 92.723122,106.400833   C92.723122,107.795715 92.723122,109.184532 92.723122,110.671982   C90.742905,110.920860 88.992928,111.140808 87.242943,111.360748   C87.122734,111.922836 87.002518,112.484917 86.882301,113.047005   C88.933403,113.501022 90.984497,113.955048 93.658051,114.546852   C93.758659,115.529747 93.901550,116.925735 94.105057,118.913887   C90.004303,118.913887 86.230583,119.020042 82.476723,118.794991   C81.937767,118.762680 81.494583,117.132729 81.004227,115.763016  z"/>
<path fill="#15CE5F" opacity="1.000000" stroke="none" d=" M110.994560,116.182083   C109.133614,120.107460 101.338623,120.063545 98.064774,116.535454   C93.228928,111.324074 95.929352,100.927292 102.688202,98.734978   C109.024323,96.679779 111.241730,98.470245 110.844383,104.053146   C107.805344,104.782463 104.804672,104.897926 102.678200,106.320305   C101.865135,106.864151 102.305054,111.429642 103.517418,112.307854   C105.024307,113.399422 107.923035,112.569603 110.781960,112.569603   C110.813957,113.041397 110.906029,114.398643 110.994560,116.182083  z"/>
<path fill="#15CE5F" opacity="1.000000" stroke="none" d=" M115.999893,109.166725   C115.776146,106.643745 117.034927,103.839935 113.102905,103.690269   C112.612518,103.671600 112.219589,101.092491 111.645035,99.265968   C117.089432,99.265968 121.811913,99.265968 126.758057,99.265968   C126.758057,100.733749 126.758057,101.994049 126.758057,103.554321   C125.406891,103.791969 124.000153,104.039391 122.076645,104.377701   C122.076645,109.000259 122.076645,113.725723 122.076645,118.754303   C119.988190,118.856514 118.397003,118.934395 115.999969,119.051704   C115.999969,115.756859 115.999969,112.695564 115.999893,109.166725  z"/>
<path fill="none" opacity="1.000000" stroke="none" d=" M100.032623,29.000973   C102.709038,28.810360 104.837662,29.241453 103.849251,32.036140   C103.347832,33.453876 101.573601,34.837383 100.068893,35.366566   C98.584175,35.888721 96.713547,35.313541 94.950615,35.216373   C93.151115,30.264797 93.678406,29.536266 100.032623,29.000973  z"/>
<path fill="none" opacity="1.000000" stroke="none" d=" M43.531704,40.473186   C42.757969,39.142578 42.098984,38.160095 41.721657,37.079273   C40.126926,32.511337 41.544117,27.936697 45.257195,25.710823   C49.230087,23.329197 53.082802,23.931141 56.085915,27.190092   C59.111263,30.473173 60.028152,34.457840 57.477764,38.599377   C55.025429,42.581680 50.814671,43.997414 46.261066,42.359333   C45.359535,42.035019 44.600674,41.314095 43.531704,40.473186  z"/>
<path fill="none" opacity="1.000000" stroke="none" d=" M42.124924,76.122345   C42.719040,73.826355 43.330746,71.847839 43.942451,69.869316   C44.388054,69.835663 44.833652,69.802010 45.279255,69.768356   C45.738438,72.247833 46.197624,74.727303 46.656807,77.206779   C45.152042,76.951126 43.647282,76.695465 42.124924,76.122345  z"/>
<path fill="none" opacity="1.000000" stroke="none" d=" M31.100636,104.012039   C35.159740,103.919411 36.036541,106.741035 35.776531,109.246674   C35.604778,110.901794 33.353775,113.715523 32.296032,113.600395   C30.449074,113.399353 27.408401,111.352669 27.397736,110.058609   C27.381218,108.054047 29.489920,106.031967 31.100636,104.012039  z"/>
</svg>